<?xml version="1.0" encoding="UTF-8" standalone="no" ?>
<!DOCTYPE svg PUBLIC "-//W3C//DTD SVG 1.1//EN" "http://www.w3.org/Graphics/SVG/1.1/DTD/svg11.dtd">
<svg xmlns="http://www.w3.org/2000/svg" xmlns:xlink="http://www.w3.org/1999/xlink" version="1.1" width="418.0507835388184" height="574.703" xml:space="preserve">
<desc>Created with Fabric.js 1.6.0-rc.1</desc>
<defs></defs>
<g style="stroke: none; stroke-width: 1; stroke-dasharray: none; stroke-linecap: butt; stroke-linejoin: miter; stroke-miterlimit: 10; fill: none; fill-rule: nonzero; opacity: 1;" transform="translate(10 85.78000000000003) rotate(267.38) scale(0.72 2.63)" >
  <path d="M 67.7 55.7 c 0.5 0.8 0.2 2.3 -0.6 3.4 c -0.8 1.1 -1.9 1.3 -2.4 0.6 c -0.5 -0.8 -0.2 -2.3 0.6 -3.4 C 66.1 55.2 67.2 54.9 67.7 55.7 z M 59.5 58.1 c -0.6 1.1 -0.5 2.3 0 2.7 c 0.6 0.4 1.5 -0.1 2.1 -1.2 c 0.6 -1.1 0.6 -2.3 0 -2.7 C 61 56.4 60.1 57 59.5 58.1 z M 54.5 61.4 c -0.3 1 -0.1 1.9 0.5 2 c 0.6 0.1 1.4 -0.6 1.7 -1.6 c 0.3 -1 0.1 -1.9 -0.5 -2 C 55.6 59.6 54.8 60.4 54.5 61.4 z M 50.4 65.6 c -0.1 0.9 0.2 1.5 0.8 1.4 c 0.6 -0.1 1.2 -0.9 1.3 -1.8 c 0.1 -0.9 -0.2 -1.5 -0.8 -1.4 C 51.2 63.9 50.6 64.7 50.4 65.6 z M 47.3 70.1 c 0 0.7 0.4 1.1 1 0.8 c 0.5 -0.3 0.9 -1.1 0.9 -1.8 c 0 -0.7 -0.4 -1.1 -1 -0.8 C 47.7 68.6 47.3 69.4 47.3 70.1 z M 45.2 74.7 c 0.1 0.5 0.6 0.7 1 0.3 c 0.4 -0.4 0.7 -1.2 0.6 -1.7 c -0.1 -0.5 -0.6 -0.6 -1 -0.2 C 45.3 73.4 45.1 74.2 45.2 74.7 z M 44 79 c 0.2 0.4 0.7 0.3 1 -0.2 c 0.3 -0.5 0.5 -1.2 0.2 -1.5 c -0.2 -0.4 -0.7 -0.3 -1 0.2 C 43.9 77.9 43.8 78.6 44 79 z M 76.2 52.2 c -1.3 1 -2.1 3 -1.9 4.4 c 0.2 1.4 1.5 1.8 2.8 0.8 c 1.3 -1 2.2 -3 2 -4.5 C 78.8 51.5 77.5 51.2 76.2 52.2 z M 69.2 50.9 c -1 1.2 -1.4 3 -0.9 3.9 c 0.5 1 1.7 0.8 2.7 -0.4 c 1 -1.2 1.5 -3 1 -4 C 71.5 49.5 70.3 49.7 69.2 50.9 z M 62.6 52.3 c -0.7 1.2 -0.8 2.7 -0.2 3.2 c 0.6 0.6 1.7 0 2.4 -1.2 c 0.7 -1.2 0.8 -2.7 0.2 -3.3 C 64.4 50.5 63.4 51.1 62.6 52.3 z M 56.8 55.6 c -0.4 1.2 -0.3 2.2 0.4 2.4 c 0.7 0.2 1.6 -0.6 2 -1.7 c 0.5 -1.2 0.3 -2.3 -0.4 -2.5 C 58.2 53.6 57.3 54.4 56.8 55.6 z M 52 60 c -0.2 1 0.1 1.8 0.8 1.7 c 0.7 -0.1 1.4 -1 1.6 -2 c 0.2 -1 -0.1 -1.8 -0.8 -1.7 C 52.9 58.1 52.2 59 52 60 z M 48.3 65 c 0 0.8 0.4 1.3 1 1 c 0.6 -0.3 1.1 -1.2 1.1 -2.1 c 0 -0.8 -0.4 -1.3 -1 -1 C 48.8 63.2 48.3 64.2 48.3 65 z M 45.6 70.1 c 0.1 0.7 0.6 0.8 1.1 0.4 c 0.5 -0.4 0.8 -1.3 0.7 -2 c -0.1 -0.7 -0.6 -0.8 -1.1 -0.4 C 45.8 68.5 45.5 69.4 45.6 70.1 z M 89.6 53.7 c -1.8 0.6 -3.5 2.9 -3.9 5.1 c -0.3 2.2 0.9 3.5 2.7 3 c 1.8 -0.6 3.6 -2.9 3.9 -5.1 C 92.7 54.4 91.4 53 89.6 53.7 z M 82.6 47 c -1.6 1.1 -2.7 3.4 -2.6 5.1 c 0.1 1.7 1.5 2.3 3.1 1.3 c 1.6 -1.1 2.8 -3.4 2.6 -5.2 C 85.6 46.5 84.1 45.9 82.6 47 z M 74.8 44.6 c -1.2 1.3 -1.9 3.4 -1.4 4.6 c 0.5 1.2 1.8 1.2 3.1 -0.1 c 1.3 -1.3 1.9 -3.4 1.5 -4.7 C 77.5 43.1 76 43.2 74.8 44.6 z M 67.2 45.4 c -0.9 1.4 -1.1 3.1 -0.5 3.9 c 0.6 0.8 1.9 0.2 2.8 -1.1 c 0.9 -1.4 1.1 -3.2 0.5 -3.9 C 69.4 43.5 68.1 44 67.2 45.4 z M 60.4 48.6 c -0.6 1.3 -0.5 2.7 0.3 3 c 0.7 0.3 1.8 -0.5 2.4 -1.8 c 0.6 -1.3 0.5 -2.7 -0.3 -3 C 62.1 46.5 61 47.3 60.4 48.6 z M 54.7 53.3 c -0.3 1.2 0 2.1 0.7 2.1 c 0.7 0 1.6 -1 1.9 -2.2 c 0.3 -1.2 0 -2.2 -0.8 -2.1 C 55.8 51.2 55 52.2 54.7 53.3 z M 50.2 58.8 c -0.1 1 0.4 1.6 1 1.3 c 0.7 -0.3 1.3 -1.3 1.4 -2.3 c 0.1 -1 -0.4 -1.6 -1.1 -1.3 C 50.9 56.8 50.3 57.8 50.2 58.8 z M 103.4 64.7 c -2.2 -0.3 -5 1.8 -6.3 4.7 c -1.2 2.9 -0.5 5.5 1.6 5.9 c 2.2 0.4 5 -1.6 6.4 -4.5 C 106.5 67.8 105.7 65.1 103.4 64.7 z M 98.7 50.4 c -2.2 0.5 -4.4 3.1 -5 5.7 c -0.6 2.6 0.7 4.4 2.8 3.9 c 2.2 -0.4 4.5 -3 5.1 -5.7 C 102.2 51.6 100.9 49.8 98.7 50.4 z M 91.2 41.4 c -1.9 1.1 -3.4 3.8 -3.5 5.9 c 0 2.1 1.5 3 3.4 2 c 1.9 -1.1 3.5 -3.8 3.6 -6 C 94.8 41.1 93.2 40.2 91.2 41.4 z M 82.5 37.4 c -1.6 1.5 -2.4 3.9 -2 5.5 c 0.4 1.6 2 1.7 3.6 0.2 c 1.6 -1.5 2.5 -4 2.1 -5.6 C 85.7 36 84.1 35.9 82.5 37.4 z M 73.7 37.6 c -1.1 1.6 -1.5 3.7 -0.9 4.6 c 0.7 1 2.2 0.5 3.3 -1 c 1.2 -1.6 1.6 -3.7 0.9 -4.7 C 76.4 35.4 74.9 36 73.7 37.6 z M 65.7 40.7 c -0.8 1.5 -0.8 3.2 0 3.6 c 0.8 0.5 2.1 -0.4 2.9 -1.9 c 0.8 -1.6 0.8 -3.2 0 -3.7 C 67.8 38.2 66.5 39.1 65.7 40.7 z M 58.8 45.6 c -0.4 1.4 -0.1 2.5 0.7 2.6 c 0.8 0.1 1.9 -1 2.3 -2.4 c 0.5 -1.4 0.2 -2.6 -0.7 -2.7 C 60.3 43.1 59.3 44.2 58.8 45.6 z M 113.3 89.3 c -2.2 -1.9 -6.1 -0.9 -8.6 2.2 c -2.5 3 -2.8 6.9 -0.8 8.8 c 2.1 1.9 5.9 1.1 8.5 -1.9 C 115.1 95.3 115.5 91.2 113.3 89.3 z M 114.7 66.2 c -2.6 -0.7 -6.1 1.5 -7.9 4.8 c -1.7 3.3 -1.2 6.5 1.3 7.3 c 2.5 0.8 6 -1.2 7.9 -4.6 C 117.9 70.3 117.3 66.9 114.7 66.2 z M 110.7 48 c -2.6 0.4 -5.5 3.3 -6.4 6.4 c -0.9 3.1 0.3 5.4 2.9 5.2 c 2.6 -0.3 5.5 -3.1 6.6 -6.3 C 114.7 49.9 113.4 47.6 110.7 48 z M 102.8 35.9 c -2.4 1.2 -4.4 4.3 -4.7 6.9 c -0.2 2.6 1.5 3.9 3.8 2.8 c 2.4 -1.1 4.6 -4.2 4.8 -6.9 C 107.1 36 105.3 34.7 102.8 35.9 z M 93 30 c -2 1.6 -3.2 4.5 -2.9 6.5 c 0.3 2 2.2 2.3 4.1 0.7 c 2 -1.6 3.4 -4.6 3 -6.6 C 96.9 28.6 95 28.3 93 30 z M 82.7 29.1 c -1.5 1.8 -2.1 4.3 -1.4 5.6 c 0.7 1.3 2.5 0.9 4 -0.9 c 1.5 -1.8 2.2 -4.4 1.5 -5.7 C 86.1 26.8 84.2 27.2 82.7 29.1 z M 73.2 31.9 c -1 1.8 -1.1 3.8 -0.3 4.5 c 0.9 0.7 2.4 -0.2 3.5 -2 c 1.1 -1.8 1.2 -3.9 0.3 -4.5 C 75.8 29.2 74.2 30.1 73.2 31.9 z M 112.8 126.7 c -1.4 -3.6 -5.7 -4.7 -9.5 -2.5 c -3.7 2.1 -5.5 6.6 -4.3 10 c 1.3 3.5 5.3 4.8 9.1 2.9 C 112.1 135.1 114.2 130.4 112.8 126.7 z M 124.4 98.4 c -2.4 -2.6 -7 -2 -10.3 1.3 c -3.2 3.2 -4 7.7 -1.9 10.2 c 2.2 2.6 6.7 2.2 10.1 -0.9 C 125.8 105.9 126.8 101.1 124.4 98.4 z M 128.7 70.8 c -3 -1.2 -7.4 0.9 -9.9 4.7 c -2.4 3.7 -2.1 7.7 0.7 9 c 2.8 1.3 7.3 -0.6 9.9 -4.4 C 132.1 76.3 131.8 72.1 128.7 70.8 z M 126.1 47.8 c -3.2 0.1 -6.9 3.3 -8.4 7 c -1.5 3.7 -0.2 6.7 2.8 6.8 c 3.1 0 7 -3 8.6 -6.9 C 130.7 50.8 129.3 47.7 126.1 47.8 z M 118 31.8 c -3 1.2 -5.8 4.7 -6.3 8 c -0.5 3.2 1.3 5 4.2 4 c 3 -1 5.9 -4.6 6.5 -8 C 123.1 32.4 121.1 30.6 118 31.8 z M 106.9 23.1 c -2.5 1.8 -4.3 5.3 -4.2 7.8 c 0.2 2.5 2.3 3.2 4.8 1.4 c 2.6 -1.8 4.5 -5.3 4.3 -7.9 C 111.7 21.8 109.5 21.2 106.9 23.1 z M 94.8 20.7 c -1.9 2.1 -2.9 5.1 -2.2 6.8 c 0.7 1.7 2.8 1.5 4.8 -0.6 c 2 -2.1 3.1 -5.2 2.3 -7 C 99 18.2 96.8 18.6 94.8 20.7 z M 97.6 169.1 c 0 -4.7 -3.6 -8.3 -8 -8.1 c -4.2 0.2 -7.5 4 -7.5 8.4 c 0 4.4 3.3 7.9 7.5 8 C 93.9 177.5 97.6 173.8 97.6 169.1 z M 119.9 144.3 c -1.2 -4.4 -6 -6.5 -10.6 -4.6 c -4.4 1.8 -7 6.5 -5.9 10.7 c 1.1 4.2 5.5 6.4 10.1 4.9 C 118.1 153.7 121.1 148.8 119.9 144.3 z M 136.7 113.4 c -2.5 -3.5 -8 -3.5 -12.3 -0.2 c -4.1 3.2 -5.6 8.3 -3.3 11.7 c 2.3 3.4 7.5 3.8 11.9 0.8 C 137.5 122.5 139.2 116.9 136.7 113.4 L 136.7 113.4 z M 145.3 81 c -3.5 -2 -9.1 0 -12.5 4.2 c -3.3 4.1 -3.4 8.9 -0.3 11 c 3.2 2.1 8.7 0.5 12.4 -3.6 C 148.6 88.2 148.8 83 145.3 81 z M 144.9 52.2 c -3.9 -0.3 -8.8 3.1 -11.1 7.5 c -2.2 4.3 -1.1 8.2 2.6 8.7 c 3.7 0.5 8.8 -2.6 11.3 -7.1 C 150.2 56.6 149 52.5 144.9 52.2 z M 137.2 30.9 c -3.8 1.1 -7.6 5.2 -8.7 9.2 c -1 4 1 6.5 4.6 5.6 c 3.7 -0.9 7.8 -4.9 9 -9.1 C 143.3 32.4 141 29.8 137.2 30.9 z M 124.7 18.4 c -3.2 2 -5.9 6.1 -5.9 9.3 c -0.1 3.2 2.5 4.3 5.7 2.5 c 3.3 -1.9 6.1 -6.1 6.2 -9.4 C 130.7 17.4 128 16.3 124.7 18.4 z" style="stroke: none; stroke-width: 1; stroke-dasharray: none; stroke-linecap: butt; stroke-linejoin: miter; stroke-miterlimit: 10; fill: #173aeb; fill-rule: nonzero; opacity: 1;" transform=" matrix(1 0 0 1 0 0) " stroke-linecap="round" />
  <path d="M 59.6 59.4 c 0.5 0.8 0.2 2.3 -0.6 3.4 c -0.8 1.1 -1.9 1.3 -2.4 0.6 c -0.5 -0.8 -0.2 -2.3 0.6 -3.3 C 58 58.9 59.1 58.6 59.6 59.4 z M 51.4 61.8 c -0.6 1.1 -0.5 2.3 0 2.7 c 0.6 0.4 1.5 -0.1 2.1 -1.2 c 0.6 -1.1 0.6 -2.3 0 -2.7 C 52.9 60.1 52 60.7 51.4 61.8 z M 46.4 65.1 c -0.3 1 -0.1 1.9 0.5 2 c 0.6 0.1 1.4 -0.6 1.7 -1.6 c 0.3 -1 0.1 -1.9 -0.5 -2 C 47.5 63.3 46.7 64.1 46.4 65.1 z M 42.3 69.2 c -0.1 0.9 0.2 1.5 0.8 1.4 c 0.6 -0.1 1.2 -0.9 1.3 -1.8 c 0.1 -0.9 -0.2 -1.5 -0.8 -1.4 C 43 67.6 42.4 68.4 42.3 69.2 z M 39.2 73.8 c 0 0.7 0.4 1.1 1 0.8 c 0.5 -0.3 0.9 -1.1 0.9 -1.8 c 0 -0.7 -0.4 -1.1 -1 -0.8 C 39.6 72.3 39.2 73.1 39.2 73.8 z M 37.1 78.4 c 0.1 0.5 0.6 0.7 1 0.2 c 0.4 -0.4 0.7 -1.2 0.6 -1.7 c -0.1 -0.5 -0.6 -0.7 -1 -0.2 C 37.2 77.1 37 77.8 37.1 78.4 z M 35.8 82.7 c 0.2 0.4 0.7 0.3 1 -0.2 c 0.3 -0.5 0.5 -1.2 0.2 -1.5 c -0.2 -0.4 -0.7 -0.3 -1 0.2 C 35.7 81.6 35.6 82.3 35.8 82.7 z M 68 55.9 c -1.3 1 -2.1 3 -1.9 4.4 c 0.2 1.4 1.5 1.8 2.8 0.8 c 1.3 -1 2.2 -3 2 -4.5 C 70.6 55.2 69.4 54.9 68 55.9 z M 61.1 54.6 c -1 1.2 -1.4 3 -0.9 3.9 c 0.5 1 1.7 0.8 2.7 -0.4 c 1 -1.2 1.5 -3 1 -4 C 63.4 53.2 62.1 53.4 61.1 54.6 z M 54.5 56 c -0.7 1.2 -0.8 2.7 -0.2 3.2 c 0.6 0.6 1.7 0 2.4 -1.2 c 0.7 -1.2 0.8 -2.7 0.2 -3.3 C 56.3 54.2 55.2 54.8 54.5 56 z M 48.7 59.3 c -0.4 1.2 -0.3 2.2 0.4 2.4 c 0.7 0.2 1.6 -0.6 2 -1.7 c 0.5 -1.2 0.3 -2.3 -0.4 -2.5 C 50 57.3 49.1 58.1 48.7 59.3 z M 43.9 63.7 c -0.2 1 0.1 1.8 0.8 1.7 c 0.7 -0.1 1.4 -1 1.6 -2 c 0.2 -1 -0.1 -1.8 -0.8 -1.7 C 44.8 61.8 44.1 62.7 43.9 63.7 z M 40.1 68.7 c 0 0.8 0.4 1.3 1 1 c 0.6 -0.3 1.1 -1.2 1.1 -2.1 c 0 -0.8 -0.4 -1.3 -1 -1 C 40.7 66.9 40.2 67.8 40.1 68.7 z M 37.5 73.8 c 0.1 0.7 0.6 0.8 1.1 0.4 c 0.5 -0.4 0.8 -1.3 0.7 -2 c -0.1 -0.7 -0.6 -0.8 -1.1 -0.4 C 37.7 72.2 37.4 73.1 37.5 73.8 z M 81.4 57.3 c -1.8 0.6 -3.5 2.9 -3.9 5.1 c -0.3 2.2 0.9 3.5 2.7 3 c 1.8 -0.6 3.6 -2.9 3.9 -5.1 C 84.5 58 83.3 56.7 81.4 57.3 z M 74.4 50.7 c -1.6 1.1 -2.7 3.4 -2.6 5.1 c 0.1 1.7 1.5 2.3 3.1 1.3 c 1.6 -1.1 2.8 -3.4 2.6 -5.2 C 77.4 50.1 76 49.6 74.4 50.7 z M 66.7 48.3 c -1.2 1.3 -1.9 3.4 -1.4 4.6 c 0.5 1.2 1.8 1.2 3.1 -0.1 c 1.3 -1.3 1.9 -3.4 1.5 -4.7 C 69.3 46.8 67.9 46.9 66.7 48.3 z M 59.1 49.1 c -0.9 1.4 -1.1 3.1 -0.5 3.9 c 0.6 0.8 1.9 0.2 2.8 -1.1 c 0.9 -1.4 1.1 -3.2 0.5 -3.9 C 61.3 47.2 60 47.7 59.1 49.1 z M 52.3 52.3 c -0.6 1.3 -0.5 2.7 0.3 3 c 0.7 0.3 1.8 -0.5 2.4 -1.8 c 0.6 -1.3 0.5 -2.7 -0.3 -3 C 53.9 50.2 52.9 51 52.3 52.3 z M 46.5 57 c -0.3 1.2 0 2.1 0.7 2.1 c 0.7 0 1.6 -1 1.9 -2.2 c 0.3 -1.2 0 -2.2 -0.8 -2.1 C 47.7 54.9 46.9 55.8 46.5 57 z M 42 62.5 c -0.1 1 0.4 1.6 1 1.3 c 0.7 -0.3 1.3 -1.3 1.4 -2.3 c 0.1 -1 -0.4 -1.6 -1.1 -1.3 C 42.8 60.5 42.1 61.5 42 62.5 z M 95.3 68.4 c -2.2 -0.3 -5 1.8 -6.3 4.7 c -1.2 2.9 -0.5 5.5 1.6 5.9 c 2.2 0.4 5 -1.6 6.4 -4.5 C 98.3 71.5 97.6 68.8 95.3 68.4 z M 90.6 54.1 c -2.2 0.5 -4.4 3.1 -5 5.7 c -0.6 2.6 0.7 4.4 2.8 3.9 c 2.2 -0.4 4.5 -3 5.1 -5.7 C 94.1 55.3 92.8 53.5 90.6 54.1 z M 83.1 45.1 c -1.9 1.1 -3.4 3.8 -3.5 5.9 c 0 2.1 1.5 3 3.4 2 c 1.9 -1.1 3.5 -3.8 3.6 -6 C 86.6 44.8 85 43.9 83.1 45.1 z M 74.4 41.1 c -1.6 1.5 -2.4 3.9 -2 5.5 c 0.4 1.6 2 1.7 3.6 0.2 c 1.6 -1.5 2.5 -4 2.1 -5.6 C 77.6 39.7 75.9 39.6 74.4 41.1 z M 65.6 41.3 c -1.1 1.6 -1.5 3.7 -0.9 4.6 c 0.7 1 2.2 0.5 3.3 -1 c 1.2 -1.6 1.6 -3.7 0.9 -4.7 C 68.3 39.1 66.8 39.7 65.6 41.3 z M 57.6 44.4 c -0.8 1.5 -0.8 3.2 0 3.6 c 0.8 0.5 2.1 -0.4 2.9 -1.9 c 0.8 -1.6 0.8 -3.2 0 -3.7 C 59.6 41.9 58.3 42.8 57.6 44.4 z M 50.7 49.3 c -0.4 1.4 -0.1 2.5 0.7 2.6 c 0.8 0.1 1.9 -1 2.3 -2.4 c 0.5 -1.4 0.2 -2.6 -0.7 -2.7 C 52.2 46.8 51.2 47.9 50.7 49.3 z M 105.1 92.9 c -2.2 -1.9 -6.1 -0.9 -8.6 2.2 c -2.5 3 -2.8 6.9 -0.8 8.8 c 2.1 1.9 5.9 1.1 8.5 -1.9 C 106.9 99 107.4 94.9 105.1 92.9 z M 106.6 69.9 c -2.6 -0.7 -6.1 1.5 -7.9 4.8 c -1.7 3.3 -1.2 6.5 1.3 7.3 c 2.5 0.8 6 -1.2 7.9 -4.6 C 109.8 74 109.2 70.6 106.6 69.9 z M 102.6 51.7 c -2.6 0.4 -5.5 3.3 -6.4 6.4 c -0.9 3.1 0.3 5.4 2.9 5.2 c 2.6 -0.3 5.5 -3.1 6.6 -6.3 C 106.6 53.6 105.2 51.3 102.6 51.7 z M 94.7 39.6 c -2.4 1.2 -4.4 4.3 -4.7 6.9 c -0.2 2.6 1.5 3.9 3.8 2.8 c 2.4 -1.1 4.6 -4.2 4.8 -6.9 C 98.9 39.7 97.1 38.4 94.7 39.6 z M 84.9 33.7 c -2 1.6 -3.2 4.5 -2.9 6.5 c 0.3 2 2.2 2.3 4.1 0.7 c 2 -1.6 3.4 -4.6 3 -6.6 C 88.8 32.3 86.9 32 84.9 33.7 z M 74.6 32.8 c -1.5 1.8 -2.1 4.3 -1.4 5.6 c 0.7 1.3 2.5 0.9 4 -0.9 c 1.5 -1.8 2.2 -4.4 1.5 -5.7 C 77.9 30.5 76.1 30.9 74.6 32.8 z M 65 35.6 c -1 1.8 -1.1 3.8 -0.3 4.5 c 0.9 0.7 2.4 -0.2 3.5 -2 c 1.1 -1.8 1.2 -3.9 0.3 -4.5 C 67.6 32.9 66.1 33.8 65 35.6 z M 104.7 130.4 c -1.4 -3.6 -5.7 -4.7 -9.5 -2.5 c -3.7 2.1 -5.5 6.6 -4.3 10 c 1.3 3.5 5.3 4.8 9.1 2.9 C 103.9 138.8 106.1 134.1 104.7 130.4 L 104.7 130.4 z M 116.3 102.1 c -2.4 -2.6 -7 -2 -10.3 1.3 c -3.2 3.2 -4 7.7 -1.9 10.2 c 2.2 2.6 6.7 2.2 10.1 -0.9 C 117.7 109.6 118.6 104.8 116.3 102.1 z M 120.6 74.5 c -3 -1.2 -7.4 0.9 -9.9 4.7 c -2.4 3.7 -2.1 7.7 0.7 9 c 2.8 1.3 7.3 -0.6 9.9 -4.4 C 124 80 123.7 75.8 120.6 74.5 z M 117.9 51.5 c -3.2 0.1 -6.9 3.3 -8.4 7 c -1.5 3.7 -0.2 6.7 2.8 6.8 c 3.1 0.1 7 -3 8.6 -6.9 C 122.6 54.5 121.2 51.4 117.9 51.5 z M 109.9 35.5 c -3 1.2 -5.8 4.7 -6.3 8 c -0.5 3.2 1.3 5 4.2 4 c 3 -1 5.9 -4.6 6.5 -8 C 115 36.1 112.9 34.3 109.9 35.5 z M 98.8 26.8 c -2.5 1.8 -4.3 5.3 -4.2 7.8 c 0.2 2.5 2.3 3.2 4.8 1.4 c 2.6 -1.8 4.5 -5.3 4.3 -7.9 C 103.6 25.5 101.3 24.9 98.8 26.8 z M 86.7 24.4 c -1.9 2.1 -2.9 5.1 -2.2 6.8 c 0.7 1.7 2.8 1.5 4.8 -0.6 c 2 -2.1 3.1 -5.2 2.3 -7 C 90.8 21.9 88.6 22.3 86.7 24.4 z M 89.5 172.8 c 0 -4.7 -3.6 -8.3 -8 -8.1 c -4.2 0.2 -7.5 4 -7.5 8.4 c 0 4.4 3.3 7.9 7.5 8 C 85.8 181.2 89.5 177.5 89.5 172.8 z M 111.8 148 c -1.2 -4.4 -6 -6.5 -10.6 -4.6 c -4.4 1.8 -7 6.5 -5.9 10.7 c 1.1 4.2 5.5 6.4 10.1 4.9 C 110 157.4 113 152.5 111.8 148 z M 128.5 117.1 c -2.5 -3.5 -8 -3.5 -12.3 -0.2 c -4.1 3.2 -5.6 8.3 -3.3 11.7 c 2.3 3.4 7.5 3.8 11.9 0.8 C 129.3 126.2 131 120.6 128.5 117.1 z M 137.1 84.7 c -3.5 -2 -9.1 0 -12.5 4.2 c -3.3 4.1 -3.4 8.9 -0.3 11 c 3.2 2.1 8.7 0.5 12.4 -3.6 C 140.5 91.9 140.7 86.7 137.1 84.7 L 137.1 84.7 z M 136.8 55.9 c -3.9 -0.3 -8.8 3.1 -11.1 7.5 c -2.2 4.3 -1.1 8.2 2.6 8.7 c 3.7 0.5 8.8 -2.6 11.3 -7.1 C 142.1 60.3 140.8 56.2 136.8 55.9 z M 129 34.6 c -3.8 1.1 -7.6 5.2 -8.7 9.2 c -1 4 1 6.5 4.6 5.6 c 3.7 -0.9 7.8 -4.9 9 -9.1 C 135.2 36.1 132.9 33.5 129 34.6 z M 116.5 22.1 c -3.2 2 -5.9 6.1 -5.9 9.3 c -0.1 3.2 2.5 4.3 5.7 2.5 c 3.3 -1.9 6.1 -6.1 6.2 -9.4 C 122.6 21.1 119.9 20 116.5 22.1 z" style="stroke: none; stroke-width: 1; stroke-dasharray: none; stroke-linecap: butt; stroke-linejoin: miter; stroke-miterlimit: 10; fill: #ed212c; fill-rule: nonzero; opacity: 1;" transform=" matrix(1 0 0 1 0 0) " stroke-linecap="round" />
</g>
  <g transform="translate(227.24 30.05) scale(0.87 0.64)">
   <text font-family="Masque" font-size="40" font-weight="normal" style="stroke: none; stroke-width: 1; stroke-dasharray: none; stroke-linecap: butt; stroke-linejoin: miter; stroke-miterlimit: 10; fill: #ed0e33; fill-rule: nonzero; opacity: 1;" ><tspan x="-13.76" y="8.98" style="stroke: none; stroke-width: 0; stroke-dasharray: none; stroke-linecap: butt; stroke-linejoin: miter; stroke-miterlimit: 4; fill: #ed0e33; fill-rule: ; opacity: 1;">C</tspan></text>
 </g>
  <g transform="translate(258.28 30.06) scale(0.87 0.64)">
   <text font-family="Masque" font-size="40" font-weight="normal" style="stroke: none; stroke-width: 1; stroke-dasharray: none; stroke-linecap: butt; stroke-linejoin: miter; stroke-miterlimit: 10; fill: #ed0e33; fill-rule: nonzero; opacity: 1;" ><tspan x="-15.26" y="8.98" style="stroke: none; stroke-width: 0; stroke-dasharray: none; stroke-linecap: butt; stroke-linejoin: miter; stroke-miterlimit: 4; fill: #ed0e33; fill-rule: ; opacity: 1;">E</tspan></text>
 </g>
  <g transform="translate(287.87 24.69) scale(0.87 0.55)">
   <text font-family="Masque" font-size="40" font-weight="normal" style="stroke: none; stroke-width: 1; stroke-dasharray: none; stroke-linecap: butt; stroke-linejoin: miter; stroke-miterlimit: 10; fill: #000000; fill-rule: nonzero; opacity: 1;" ><tspan x="-22.1" y="8.98" style="stroke: none; stroke-width: 0; stroke-dasharray: none; stroke-linecap: butt; stroke-linejoin: miter; stroke-miterlimit: 4; fill: #000000; fill-rule: ; opacity: 1;"> </tspan><tspan x="-7.66" y="8.98" style="stroke: none; stroke-width: 0; stroke-dasharray: none; stroke-linecap: butt; stroke-linejoin: miter; stroke-miterlimit: 4; fill: #000000; fill-rule: ; opacity: 1;">-</tspan><tspan x="7.66" y="8.98" style="stroke: none; stroke-width: 0; stroke-dasharray: none; stroke-linecap: butt; stroke-linejoin: miter; stroke-miterlimit: 4; fill: #000000; fill-rule: ; opacity: 1;"> </tspan></text>
 </g>
  <g transform="translate(353.75 30.06) scale(0.87 0.64)">
   <text font-family="Masque" font-size="40" font-weight="normal" style="stroke: none; stroke-width: 1; stroke-dasharray: none; stroke-linecap: butt; stroke-linejoin: miter; stroke-miterlimit: 10; fill: #0c4ced; fill-rule: nonzero; opacity: 1;" ><tspan x="-62.92" y="8.98" style="stroke: none; stroke-width: 0; stroke-dasharray: none; stroke-linecap: butt; stroke-linejoin: miter; stroke-miterlimit: 4; fill: #0c4ced; fill-rule: ; opacity: 1;">A</tspan><tspan x="-29.84" y="8.98" style="stroke: none; stroke-width: 0; stroke-dasharray: none; stroke-linecap: butt; stroke-linejoin: miter; stroke-miterlimit: 4; fill: #0c4ced; fill-rule: ; opacity: 1;">C</tspan><tspan x="-2.32" y="8.98" style="stroke: none; stroke-width: 0; stroke-dasharray: none; stroke-linecap: butt; stroke-linejoin: miter; stroke-miterlimit: 4; fill: #0c4ced; fill-rule: ; opacity: 1;">A</tspan><tspan x="30.76" y="8.98" style="stroke: none; stroke-width: 0; stroke-dasharray: none; stroke-linecap: butt; stroke-linejoin: miter; stroke-miterlimit: 4; fill: #0c4ced; fill-rule: ; opacity: 1;">D</tspan></text>
 </g>
</svg>